# xmcd
#
# Track frame offsets:
#	150
#	15656
#	28267
#	44198
#	61216
#	78453
#	91069
#	105720
#	123390
#	136442
#
# Disc length: 2004 seconds
#
# Revision: 0
# Processed by: cddbd v1.5.1PL0 Copyright (c) Steve Scherf et al.
# Submitted via: dBpowerAMP V4.0
#
DISCID=8507d20a
DTITLE=The Fabulous Thunderbirds - Tuff Enuf
DYEAR=1986
DGENRE=Blues Rock
TTITLE0=01 - Tuff Enuff
TTITLE1=02 - Tell Me
TTITLE2=03 - Look At That, Look At That
TTITLE3=04 - Two Time My Lovin'
TTITLE4=05 - Amnesia
TTITLE5=06 - Wrap It Up
TTITLE6=07 - True Love
TTITLE7=08 - Why Get Up
TTITLE8=09 - I Don't Care
TTITLE9=10 - Down At Antones
EXTD=
EXTT0=
EXTT1=
EXTT2=
EXTT3=
EXTT4=
EXTT5=
EXTT6=
EXTT7=
EXTT8=
EXTT9=
PLAYORDER=
